<?xml version="1.0" encoding="UTF-8" standalone="no"?>
<!DOCTYPE svg PUBLIC "-//W3C//DTD SVG 1.1//EN" "http://www.w3.org/Graphics/SVG/1.1/DTD/svg11.dtd">
<svg width="100%" height="100%" viewBox="0 0 47 26" version="1.1" xmlns="http://www.w3.org/2000/svg" xmlns:xlink="http://www.w3.org/1999/xlink" xml:space="preserve" xmlns:serif="http://www.serif.com/" style="fill-rule:evenodd;clip-rule:evenodd;stroke-linejoin:round;stroke-miterlimit:2;">
    <g transform="matrix(1,0,0,1,-23.0417,-32.0417)">
        <g transform="matrix(1,0,0,1,-1,0)">
            <g transform="matrix(0.9375,0,0,0.9375,21.6667,29.6667)">
                <path d="M16.667,13.333L13.333,13.333C12.6,13.333 12,12.733 12,12C12,11.267 12.6,10.667 13.333,10.667L16.667,10.667C17.4,10.667 18,11.267 18,12C18,12.733 17.4,13.333 16.667,13.333M20,18.667C20,17.933 19.4,17.333 18.667,17.333L13.333,17.333C12.6,17.333 12,17.933 12,18.667C12,19.4 12.6,20 13.333,20L18.667,20C19.4,20 20,19.4 20,18.667M29.333,5.333L29.333,26.667C29.333,28.147 28.147,29.333 26.667,29.333L5.333,29.333C3.853,29.333 2.667,28.147 2.667,26.667L2.667,5.333C2.667,3.853 3.853,2.667 5.333,2.667L26.667,2.667C28.147,2.667 29.333,3.853 29.333,5.333M24,16C24,16 24,14.667 22.667,14.667C21.4,14.707 21.333,13.333 21.333,13.333L21.333,10.667C21.333,8.453 19.547,6.667 17.333,6.667L12,6.667C9.787,6.667 8,8.453 8,10.667L8,20C8,22.213 9.787,24 12,24L20,24C22.213,24 24,22.213 24,20L24,16Z" style="fill:rgb(255,145,36);fill-rule:nonzero;stroke:white;stroke-width:0.27px;"/>
            </g>
            <g transform="matrix(1.10748,0,0,1.10746,40.7701,26.1577)">
                <path d="M6.667,28C5.933,28 5.305,27.739 4.783,27.216C4.26,26.693 3.999,26.066 4,25.333C4,24.6 4.261,23.972 4.784,23.449C5.307,22.927 5.934,22.666 6.667,22.667C7.4,22.667 8.028,22.928 8.551,23.451C9.073,23.973 9.334,24.601 9.333,25.333C9.333,26.067 9.072,26.695 8.549,27.217C8.027,27.74 7.399,28.001 6.667,28ZM24.633,28C24.1,28 23.639,27.811 23.249,27.433C22.86,27.056 22.632,26.589 22.567,26.033C22.344,23.856 21.761,21.811 20.816,19.9C19.871,17.989 18.66,16.294 17.184,14.816C15.706,13.339 14.011,12.128 12.1,11.185C10.189,10.242 8.144,9.659 5.967,9.435C5.411,9.367 4.944,9.133 4.567,8.733C4.189,8.333 4,7.856 4,7.3C4,6.744 4.195,6.283 4.584,5.916C4.973,5.549 5.434,5.388 5.967,5.433C8.7,5.656 11.267,6.344 13.667,7.5C16.067,8.656 18.184,10.15 20.017,11.984C21.85,13.817 23.344,15.933 24.5,18.333C25.656,20.733 26.344,23.3 26.567,26.033C26.611,26.567 26.444,27.028 26.067,27.417C25.689,27.807 25.211,28.001 24.633,28ZM16.633,28C16.122,28 15.661,27.816 15.251,27.449C14.84,27.082 14.579,26.61 14.467,26.033C14.067,23.878 13.089,22.022 11.533,20.467C9.978,18.911 8.122,17.933 5.967,17.533C5.389,17.422 4.917,17.156 4.551,16.733C4.184,16.311 4.001,15.833 4,15.3C4,14.722 4.2,14.256 4.6,13.9C5,13.544 5.456,13.4 5.967,13.467C9.256,13.911 12.061,15.295 14.384,17.617C16.707,19.94 18.09,22.745 18.533,26.033C18.6,26.544 18.444,27 18.067,27.4C17.689,27.8 17.211,28 16.633,28Z" style="fill:rgb(255,145,36);fill-rule:nonzero;stroke:white;stroke-width:0.23px;"/>
            </g>
        </g>
    </g>
</svg>
